<svg xmlns="http://www.w3.org/2000/svg" viewBox="0 0 64 64" fill="none">
  <rect width="64" height="64" rx="14" fill="#131314"/>
  <path d="M22 18c-4 0-7 3-7 7 0 2 1 4 2 5-1 1-2 3-2 5 0 4 3 7 7 7v4c0 1 1 2 2 2s2-1 2-2v-4h2v4c0 1 1 2 2 2s2-1 2-2v-4h2v4c0 1 1 2 2 2s2-1 2-2v-4c4 0 7-3 7-7 0-2-1-4-2-5 1-1 2-3 2-5 0-4-3-7-7-7-2 0-4 1-5 2-1-1-3-2-5-2s-4 1-5 2c-1-1-3-2-5-2z" fill="#b4c5ff"/>
  <path d="M22 26c0-2 2-3 4-3M32 26c0-2 2-3 4-3M22 36c0 2 2 3 4 3M32 36c0 2 2 3 4 3" stroke="#131314" stroke-width="1.5" stroke-linecap="round"/>
</svg>
